<svg xmlns="http://www.w3.org/2000/svg" viewBox="0 0 1600 1000" role="img" aria-labelledby="title desc">
  <title id="title">AI civilization simulation</title>
  <desc id="desc">A luminous city simulation with many agent paths and social nodes.</desc>
  <defs>
    <linearGradient id="bg" x1="0" x2="1" y1="0" y2="1"><stop offset="0" stop-color="#090b14"/><stop offset="1" stop-color="#1e1326"/></linearGradient>
  </defs>
  <rect width="1600" height="1000" fill="url(#bg)"/>
  <g transform="translate(188 220)">
    <path d="M0 560 L240 330 L420 420 L680 190 L1040 560 Z" fill="#111827" stroke="#ffd16b" stroke-width="4"/>
    <g fill="#1f3342" stroke="#9df8ff" stroke-width="3">
      <rect x="180" y="265" width="88" height="295"/>
      <rect x="310" y="360" width="118" height="200"/>
      <rect x="514" y="220" width="96" height="340"/>
      <rect x="666" y="142" width="134" height="418"/>
      <rect x="850" y="305" width="110" height="255"/>
    </g>
    <g fill="#ffd16b">
      <rect x="202" y="292" width="18" height="18"/><rect x="232" y="340" width="18" height="18"/>
      <rect x="540" y="270" width="18" height="18"/><rect x="716" y="204" width="18" height="18"/>
      <rect x="884" y="340" width="18" height="18"/>
    </g>
  </g>
  <g fill="none" stroke-width="4" opacity="0.82">
    <path d="M330 760 C480 650 585 790 735 652 C880 520 986 640 1180 430" stroke="#9df8ff"/>
    <path d="M400 450 C538 382 658 436 790 340 C932 238 1054 300 1236 210" stroke="#ff7fa6"/>
    <path d="M244 650 C420 594 520 530 690 564 C878 602 1026 522 1350 556" stroke="#ffd16b"/>
  </g>
  <g fill="#ffffff">
    <circle cx="330" cy="760" r="12"/><circle cx="735" cy="652" r="12"/><circle cx="1180" cy="430" r="12"/>
    <circle cx="400" cy="450" r="10"/><circle cx="790" cy="340" r="10"/><circle cx="1236" cy="210" r="10"/>
    <circle cx="244" cy="650" r="9"/><circle cx="690" cy="564" r="9"/><circle cx="1350" cy="556" r="9"/>
  </g>
</svg>
