<svg xmlns="http://www.w3.org/2000/svg" viewBox="0 0 1600 1000" role="img" aria-labelledby="title desc">
  <title id="title">Guided world model questions</title>
  <desc id="desc">A cinematic help console guiding viewers through world model questions.</desc>
  <rect width="1600" height="1000" fill="#090d14"/>
  <g transform="translate(260 120)" fill="#101a22" stroke="#8df6dd" stroke-width="4">
    <rect width="1080" height="720" rx="44"/>
    <rect x="92" y="96" width="390" height="210" rx="26"/>
    <rect x="598" y="96" width="390" height="210" rx="26"/>
    <rect x="92" y="392" width="390" height="210" rx="26"/>
    <rect x="598" y="392" width="390" height="210" rx="26"/>
  </g>
  <g fill="#f8d66d">
    <circle cx="452" cy="225" r="54"/><circle cx="958" cy="225" r="54"/>
    <circle cx="452" cy="521" r="54"/><circle cx="958" cy="521" r="54"/>
  </g>
  <g fill="#091018" font-family="Arial, sans-serif" font-size="78" font-weight="900">
    <text x="428" y="252">?</text><text x="934" y="252">?</text><text x="428" y="548">?</text><text x="934" y="548">?</text>
  </g>
  <g fill="#eaffff" opacity="0.78">
    <rect x="400" y="325" width="190" height="14" rx="7"/><rect x="400" y="356" width="250" height="10" rx="5" opacity="0.55"/>
    <rect x="906" y="325" width="190" height="14" rx="7"/><rect x="906" y="356" width="250" height="10" rx="5" opacity="0.55"/>
    <rect x="400" y="621" width="190" height="14" rx="7"/><rect x="400" y="652" width="250" height="10" rx="5" opacity="0.55"/>
    <rect x="906" y="621" width="190" height="14" rx="7"/><rect x="906" y="652" width="250" height="10" rx="5" opacity="0.55"/>
  </g>
</svg>
