<svg xmlns="http://www.w3.org/2000/svg" viewBox="0 0 1600 1000" role="img" aria-labelledby="title desc">
  <title id="title">World model signal feed</title>
  <desc id="desc">A cinematic signal dashboard showing public product and research updates.</desc>
  <rect width="1600" height="1000" fill="#081016"/>
  <g transform="translate(190 140)">
    <rect width="1220" height="700" rx="42" fill="#101923" stroke="#7cf7ff" stroke-width="4"/>
    <rect x="72" y="78" width="420" height="210" rx="28" fill="#182433" stroke="#f6d26e" stroke-width="3"/>
    <rect x="560" y="78" width="588" height="210" rx="28" fill="#111c2c" stroke="#7cf7ff" stroke-width="3"/>
    <rect x="72" y="350" width="1076" height="88" rx="20" fill="#16222d"/>
    <rect x="72" y="470" width="1076" height="88" rx="20" fill="#16222d"/>
    <rect x="72" y="590" width="1076" height="88" rx="20" fill="#16222d"/>
    <path d="M125 210 C205 128 330 232 438 130" fill="none" stroke="#ff7fa6" stroke-width="12" stroke-linecap="round"/>
    <path d="M626 214 C760 120 872 250 1032 120" fill="none" stroke="#7cf7ff" stroke-width="12" stroke-linecap="round"/>
    <g fill="#eaffff">
      <rect x="126" y="378" width="260" height="14" rx="7"/><rect x="126" y="410" width="560" height="10" rx="5" opacity="0.55"/>
      <rect x="126" y="498" width="210" height="14" rx="7"/><rect x="126" y="530" width="650" height="10" rx="5" opacity="0.55"/>
      <rect x="126" y="618" width="310" height="14" rx="7"/><rect x="126" y="650" width="520" height="10" rx="5" opacity="0.55"/>
    </g>
  </g>
</svg>
