<svg xmlns="http://www.w3.org/2000/svg" viewBox="0 0 1600 1000" role="img" aria-labelledby="title desc">
  <title id="title">Generated 3D spatial world</title>
  <desc id="desc">A glasslike 3D room being assembled from light, geometry, and camera paths.</desc>
  <defs>
    <linearGradient id="bg" x1="0" x2="1" y1="0" y2="1"><stop offset="0" stop-color="#071215"/><stop offset="1" stop-color="#171927"/></linearGradient>
    <linearGradient id="edge" x1="0" x2="1"><stop offset="0" stop-color="#76ffe5"/><stop offset="1" stop-color="#a6b8ff"/></linearGradient>
  </defs>
  <rect width="1600" height="1000" fill="url(#bg)"/>
  <g transform="translate(320 172)" stroke="url(#edge)" stroke-width="5" fill="rgba(255,255,255,0.04)">
    <path d="M160 120 L640 20 L910 210 L410 342 Z"/>
    <path d="M160 120 L160 560 L410 760 L410 342 Z"/>
    <path d="M410 342 L910 210 L910 610 L410 760 Z"/>
    <path d="M640 20 V450 M160 560 L640 450 L910 610"/>
  </g>
  <g opacity="0.55" stroke="#d8fff9">
    <path d="M305 790 H1240 M404 720 H1136 M502 650 H1036 M600 580 H936"/>
    <path d="M420 820 L710 250 M810 820 L760 230 M1160 820 L820 250"/>
  </g>
  <g fill="#f4d36d">
    <circle cx="706" cy="326" r="18"/>
    <circle cx="946" cy="484" r="14"/>
    <circle cx="552" cy="600" r="12"/>
  </g>
  <path d="M460 250 C640 154 814 214 980 124 C1086 66 1190 78 1280 112" fill="none" stroke="#ff7fa6" stroke-width="14" stroke-linecap="round"/>
  <rect x="1130" y="202" width="230" height="76" rx="18" fill="#101b25" stroke="#76ffe5"/>
  <rect x="1160" y="226" width="126" height="12" rx="6" fill="#dcfffa"/>
  <rect x="1160" y="252" width="80" height="10" rx="5" fill="#dcfffa" opacity="0.55"/>
</svg>
