<svg xmlns="http://www.w3.org/2000/svg" viewBox="0 0 1600 1000" role="img" aria-labelledby="title desc">
  <title id="title">Video turns into a navigable world</title>
  <desc id="desc">A film strip opening into a bright explorable generated landscape.</desc>
  <defs>
    <linearGradient id="bg" x1="0" x2="1" y1="0" y2="1"><stop offset="0" stop-color="#0b0d18"/><stop offset="1" stop-color="#20213e"/></linearGradient>
    <linearGradient id="road" x1="0" x2="1"><stop offset="0" stop-color="#7cf7ff"/><stop offset="0.5" stop-color="#f8d66d"/><stop offset="1" stop-color="#ff7ca8"/></linearGradient>
  </defs>
  <rect width="1600" height="1000" fill="url(#bg)"/>
  <g transform="translate(122 178)" fill="none" stroke="#d7faff" stroke-width="4" opacity="0.72">
    <rect x="0" y="0" width="520" height="650" rx="26"/>
    <path d="M0 120 H520 M0 250 H520 M0 380 H520 M0 510 H520"/>
    <path d="M86 0 V650 M434 0 V650"/>
    <circle cx="260" cy="320" r="72" fill="#102033" stroke="#7cf7ff"/>
    <path d="M238 276 L324 320 L238 364 Z" fill="#7cf7ff" stroke="none"/>
  </g>
  <g transform="translate(690 125)">
    <rect x="0" y="0" width="760" height="660" rx="42" fill="#07131a" stroke="#f8d66d" stroke-width="5"/>
    <path d="M0 485 C160 360 280 430 430 310 C548 216 655 220 760 158 L760 660 L0 660 Z" fill="#172b2a"/>
    <path d="M0 520 C158 430 304 474 456 366 C586 274 684 286 760 236 L760 660 L0 660 Z" fill="#0d181e"/>
    <path d="M84 660 C214 510 312 456 405 358 C502 257 594 190 704 66" fill="none" stroke="url(#road)" stroke-width="22" stroke-linecap="round"/>
    <g opacity="0.6" stroke="#d7faff">
      <path d="M96 606 H710 M178 538 H668 M256 470 H624 M344 402 H584"/>
      <path d="M250 660 L420 230 M480 660 L492 230"/>
    </g>
    <circle cx="256" cy="470" r="20" fill="#7cf7ff"/>
    <circle cx="405" cy="358" r="26" fill="#f8d66d"/>
    <circle cx="608" cy="170" r="18" fill="#ff7ca8"/>
  </g>
  <path d="M640 500 C690 500 720 500 760 500" stroke="#f8d66d" stroke-width="18" stroke-linecap="round"/>
  <path d="M728 458 L790 500 L728 542 Z" fill="#f8d66d"/>
</svg>
